<svg width="320" height="120" viewBox="0 0 320 120" fill="none" xmlns="http://www.w3.org/2000/svg" role="img" aria-label="KAIST logo">
  <rect width="320" height="120" rx="18" fill="#0033A0"/>
  <g fill="#FFFFFF">
    <path d="M44 88V32h12v23l21-23h15L66 58l27 30H78L56 63l-0.3 0.3V88H44z"/>
    <path d="M128 32h12l22 56h-13l-4.4-12h-22.2l-4.4 12H105l23-56zm11 34-7.2-19-7.2 19h14.4z"/>
    <path d="M170 88V32h12v56h-12z"/>
    <path d="M210 88V42h-18V32h48v10h-18v46h-12z"/>
    <path d="M244 81l7-8c4 4 9 6.5 14.6 6.5 5.4 0 8.6-2 8.6-5.2 0-3-2-4.4-11.2-6.6-11-2.6-17.2-5.8-17.2-16.4 0-9.6 7.6-16 18.4-16 7.8 0 14 2.4 19.2 6.8l-6.2 8.4c-4.4-3.2-8.8-4.8-13.2-4.8-5 0-7.8 2.2-7.8 5 0 3.4 2.2 4.6 11.8 6.8 10.6 2.6 16.6 6.2 16.6 16 0 10.4-8 16.4-19.2 16.4-8.2 0-16.2-2.8-22.4-8.4z"/>
  </g>
</svg>
